<?xml version="1.0" encoding="iso-8859-1"?>
<!-- Generator: Adobe Illustrator 16.0.0, SVG Export Plug-In . SVG Version: 6.00 Build 0)  -->
<!DOCTYPE svg PUBLIC "-//W3C//DTD SVG 1.1//EN" "http://www.w3.org/Graphics/SVG/1.1/DTD/svg11.dtd">
<svg xmlns="http://www.w3.org/2000/svg" xmlns:xlink="http://www.w3.org/1999/xlink" version="1.1" id="Capa_1" x="0px" y="0px" width="512px" height="512px" viewBox="0 0 189.878 189.879" style="enable-background:new 0 0 189.878 189.879;" xml:space="preserve">
<g>
	<path d="M172.297,167.163c-16.278-14.512-34.245-26.861-50.244-41.937c-15.217-14.339-30.257-29.312-48.297-40.104   c-0.005-0.224-0.035-0.427-0.093-0.621c3.393-6.844,0.391-17.533-4.352-23.717C57.693,45.639,37.225,31.857,18.945,26.307   c-1.765-0.536-3.186,0.022-4.123,1.055c-0.327,0.074-0.645,0.214-0.909,0.496c-1.723,1.84-2.837,3.828-3.548,5.894   c-0.771-0.009-1.55,0.37-1.765,1.242c-5.381,21.858-5.308,44.762-0.934,66.814c4.085,20.596,12.927,48.364-6.777,63.592   c-2.042,1.578-0.217,4.717,1.97,4.757c45.315,0.826,59.72-41.789,69.466-78.942c14.522,16.086,30.528,30.917,46.561,45.456   c14.489,13.139,31.064,29.932,49.702,36.864C172.171,174.868,175.071,169.637,172.297,167.163z M16.638,34.678   c13.018,3.898,25.515,12.66,35.892,21.176c5.459,4.48,10.553,9.611,13.843,15.911c2.797,5.357,0.046,11.102-6.135,10.207   C43.469,79.545,15.41,54.266,16.359,34.563C16.455,34.599,16.536,34.647,16.638,34.678z M9.942,164.315   c9.109-10.857,9.895-25.339,7.742-39.895c-1.804-12.196-5.034-24.146-6.407-36.405c-1.498-13.379-1.193-26.782-0.22-40.157   c2.435,6.872,7.149,13.518,11.077,18.386c9.128,11.312,25.077,25.632,40.789,24.618c1.436-0.093,2.711-0.331,3.856-0.681   C55.239,122.038,48.639,160.831,9.942,164.315z" fill="#006DF0"/>
	<path d="M173.56,34.219c-8.254-2.616-17.116-0.511-24.53,3.708c1.307-2.488,2.45-5.022,3.208-7.634   c1.203-4.146-3.688-6.059-6.567-3.823c-1.195,0.927-2.279,2.032-3.313,3.207c-2.518-12.439-20.563-18.671-32.525-8.35   c-5.471,4.72-8.112,11.851-5.344,18.776c1.617,4.044,4.794,6.501,8.514,7.837c-5.922,3.218-10.734,8.35-7.723,15.193   c3.638,8.264,12.81,6.22,19.96,2.349c-0.643,2.073-1.247,4.158-1.817,6.251c-1.401,5.148,5.826,6.775,7.749,2.136   c0.457-1.103,0.968-2.177,1.437-3.274c0.695,8.173,3.119,19.981,10.869,16.969c6.354-2.469,7.373-9.725,6.766-16.603   c13.332,11.283,36.39,8.319,39.405-12.456C191.29,47.186,183.992,37.525,173.56,34.219z M127.348,59.145   c-5.239,3.264-13.695,7.906-17.207,2.158c-4.072-6.663,10.439-11.481,14.06-12.314c2.639-0.607,2.073-4.851-0.64-4.724   c-10.004,0.468-20.257-7.153-12.034-17.126c3.908-4.739,11.271-6.072,16.985-5.079c7.117,1.237,10.037,7.062,9.816,13.157   c-2.449,4.017-4.446,8.422-6.252,12.306C130.311,51.318,128.751,55.203,127.348,59.145z M148.148,60.322   c-1.298-2.66-5.306-0.753-4.633,1.953c1.474,5.933,2.83,12.873-0.078,18.622c-2.738,5.413-6.252-16.527-6.271-16.808   c-0.058-0.813-0.423-1.399-0.92-1.786c1.926-4.17,3.931-8.304,6.036-12.397c1.327-2.578,2.878-5.151,4.39-7.756   c13.866-7.491,35.739-5.596,37.521,13.229C186.23,76.885,155.436,75.254,148.148,60.322z" fill="#006DF0"/>
</g>
<g>
</g>
<g>
</g>
<g>
</g>
<g>
</g>
<g>
</g>
<g>
</g>
<g>
</g>
<g>
</g>
<g>
</g>
<g>
</g>
<g>
</g>
<g>
</g>
<g>
</g>
<g>
</g>
<g>
</g>
</svg>
