<?xml version="1.0" encoding="iso-8859-1"?>
<!-- Generator: Adobe Illustrator 18.0.0, SVG Export Plug-In . SVG Version: 6.00 Build 0)  -->
<!DOCTYPE svg PUBLIC "-//W3C//DTD SVG 1.1//EN" "http://www.w3.org/Graphics/SVG/1.1/DTD/svg11.dtd">
<svg xmlns="http://www.w3.org/2000/svg" xmlns:xlink="http://www.w3.org/1999/xlink" version="1.1" id="Capa_1" x="0px" y="0px" viewBox="0 0 320 320" style="enable-background:new 0 0 320 320;" xml:space="preserve" width="512px" height="512px">
<path d="M318.135,284.257L173.136,21.259c-2.639-4.786-7.671-7.758-13.136-7.758c-5.465,0-10.497,2.972-13.136,7.758l-145,262.998  c-2.562,4.647-2.479,10.301,0.22,14.87c2.698,4.568,7.61,7.372,12.916,7.372h290c5.306,0,10.217-2.804,12.916-7.372  C320.614,294.557,320.697,288.903,318.135,284.257z M108.2,153.521h103.6l23.155,42H85.045L108.2,153.521z M160,59.569l35.26,63.953  h-70.52L160,59.569z M40.398,276.499l28.105-50.977h182.992l28.105,50.977H40.398z" fill="#006DF0"/>
<g>
</g>
<g>
</g>
<g>
</g>
<g>
</g>
<g>
</g>
<g>
</g>
<g>
</g>
<g>
</g>
<g>
</g>
<g>
</g>
<g>
</g>
<g>
</g>
<g>
</g>
<g>
</g>
<g>
</g>
</svg>
